# xmcd CD database file
#
# Track frame offsets:
#	150
#	13015
#	23470
#	37493
#	55768
#	67743
#	83603
#	95503
#	108620
#	133493
#	147150
#	162268
#	175390
#	191783
#	205940
#	216250
#	237643
#	252505
#
# Disc length: 3526 seconds
#
# Revision: 0
# Processed by: cddbd v1.5.1PL0 Copyright (c) Steve Scherf et al.
# Submitted via: CDex 1.51
#
DISCID=0d0dc412
DTITLE=Paul DeLay Band - You're Fired
DYEAR=1900
DGENRE=Blues
TTITLE0=Mine All Mine
TTITLE1=Harpoon Man
TTITLE2=Heartbreaker
TTITLE3=Cry to Me
TTITLE4=Don't Drink
TTITLE5=Signed, Sealed, and Delivered
TTITLE6=Rode Myself Crazy
TTITLE7=Everynight
TTITLE8=This ol' Life
TTITLE9=Who Will Be Next?
TTITLE10=Something's Got a Hold on Me
TTITLE11=Havin' That Fun
TTITLE12=All My Money Gone
TTITLE13=This Old Heart
TTITLE14=I Want to Be Loved
TTITLE15=Take Me Back Baby
TTITLE16=Sad as a Man Can Be
TTITLE17=Your Just the One
EXTD=
EXTT0=
EXTT1=
EXTT2=
EXTT3=
EXTT4=
EXTT5=
EXTT6=
EXTT7=
EXTT8=
EXTT9=
EXTT10=
EXTT11=
EXTT12=
EXTT13=
EXTT14=
EXTT15=
EXTT16=
EXTT17=
PLAYORDER=
